{"title":"Not Safe For Work UK S01E01 HDTV x264-RiVER","uid":12079550,"size":235366640,"categoryP":"video","categoryS":"tv_shows","magnet":"?xt=urn:btih:36f58110268c2c3534469974a159c08f35256965&amp;dn=Not+Safe+For+Work+UK+S01E01+HDTV+x264-RiVER&amp;tr=udp%3A%2F%2Ftracker.openbittorrent.com%3A80&amp;tr=udp%3A%2F%2Fopen.demonii.com%3A1337&amp;tr=udp%3A%2F%2Ftracker.coppersurfer.tk%3A6969&amp;tr=udp%3A%2F%2Fexodus.desync.com%3A6969","seeders":9,"leechers":2,"uploader":"Mulva1989","files":2,"time":1435712362,"description":"Not Safe For Work UK S01E01 HDTV x264-RiVER\n\nWorkplace comedy drama, starring Zawe Ashton as Katherine, a civil servant reluctantly relocated from London to Northampton. In the first episode, with an important briefing imminent, she has to help new boss Danny cover up the fact his department has not done any work for the past two years.\n\nScreens @ &lt;a href=&quot;\nhttps://yuq.me/users/50/321/hzWGrlo4FK.jpg&quot; rel=&quot;nofollow&quot; target=&quot;_NEW&quot;&gt;\nhttps://yuq.me/users/50/321/hzWGrlo4FK.jpg&lt;/a&gt; &lt;a href=&quot;\nhttps://yuq.me/users/50/321/OQnRbGPWh5.jpg&quot; rel=&quot;nofollow&quot; target=&quot;_NEW&quot;&gt;\nhttps://yuq.me/users/50/321/OQnRbGPWh5.jpg&lt;/a&gt;\n\nFormat                      : MPEG-4\nFormat profile              : Base Media\nCodec ID                    : isom\nFile size                   : 224 MiB\nDuration                    : 37mn 6s\nOverall bit rate mode       : Variable\nOverall bit rate            : 846 Kbps\n\nVideo\nID                          : 1\nFormat                      : AVC\nFormat/Info                 : Advanced Video Codec\nFormat profile              : &lt;a class=&quot;__cf_email__&quot; href=&quot;/cdn-cgi/l/email-protection&quot; data-cfemail=&quot;5119383639111d627f60&quot;&gt;[email&amp;#160;protected]&lt;/a&gt;&lt;script data-cfhash='f9e31' type=&quot;text/javascript&quot;&gt;\n/* &lt;![CDATA[ */!function(){try{var t=&quot;currentScript&quot;in document?document.currentScript:function(){for(var t=document.getElementsByTagName(&quot;script&quot;),e=t.length;e--;)if(t[e].getAttribute(&quot;data-cfhash&quot;))return t[e]}();if(t&amp;&amp;t.previousSibling){var e,r,n,i,c=t.previousSibling,a=c.getAttribute(&quot;data-cfemail&quot;);if(a){for(e=&quot;&quot;,r=parseInt(a.substr(0,2),16),n=2;a.length-n;n+=2)i=parseInt(a.substr(n,2),16)^r,e+=String.fromCharCode(i);e=document.createTextNode(e),c.parentNode.replaceChild(e,c)}t.parentNode.removeChild(t);}}catch(u){}}()/* ]]&gt; */&lt;/script&gt;\nFormat settings, CABAC      : Yes\nFormat settings, ReFrames   : 5 frames\nCodec ID                    : avc1\nCodec ID/Info               : Advanced Video Coding\nDuration                    : 37mn 6s\nBit rate                    : 707 Kbps\nMaximum bit rate            : 1 998 Kbps\nWidth                       : 720 pixels\nHeight                      : 388 pixels\nDisplay aspect ratio        : 1.85:1\nFrame rate mode             : Constant\nFrame rate                  : 25.000 fps\nColor space                 : YUV\nChroma subsampling          : 4:2:0\nBit depth                   : 8 bits\nScan type                   : Progressive\nBits/(Pixel*Frame)          : 0.101\nStream size                 : 188 MiB (84%)\nTitle                       : Video\nWriting library             : x264 core 146 r2538 121396c\nEncoding settings           : cabac=1 / ref=5 / deblock=1:0:0 / analyse=0x3:0x113 / me=umh / subme=8 / psy=1 / psy_rd=1.00:0.00 / mixed_ref=1 / me_range=16 / chroma_me=1 / trellis=1 / 8x8dct=1 / cqm=0 / deadzone=21,11 / fast_pskip=1 / chroma_qp_offset=-2 / threads=12 / lookahead_threads=2 / sliced_threads=0 / nr=0 / decimate=1 / interlaced=0 / bluray_compat=0 / constrained_intra=0 / bframes=3 / b_pyramid=2 / b_adapt=2 / b_bias=0 / direct=3 / weightb=1 / open_gop=0 / weightp=2 / keyint=250 / keyint_min=25 / scenecut=40 / intra_refresh=0 / rc_lookahead=50 / rc=crf / mbtree=1 / crf=19.0 / qcomp=0.60 / qpmin=0 / qpmax=69 / qpstep=4 / ip_ratio=1.40 / aq=1:1.00\nMatrix coefficients         : BT.709\nColor range                 : Limited\n\nAudio\nID                          : 2\nFormat                      : AAC\nFormat/Info                 : Advanced Audio Codec\nFormat profile              : LC\nCodec ID                    : 40\nDuration                    : 37mn 6s\nBit rate mode               : Variable\nBit rate                    : 132 Kbps\nMaximum bit rate            : 164 Kbps\nChannel(s)                  : 2 channels\nChannel positions           : Front: L R\nSampling rate               : 48.0 KHz\nCompression mode            : Lossy\nStream size                 : 35.7 MiB (16%)","torrent":{"xt":"urn:btih:36f58110268c2c3534469974a159c08f35256965","amp;dn":"Not+Safe+For+Work+UK+S01E01+HDTV+x264-RiVER","amp;tr":["udp%3A%2F%2Ftracker.openbittorrent.com%3A80","udp%3A%2F%2Fopen.demonii.com%3A1337","udp%3A%2F%2Ftracker.coppersurfer.tk%3A6969","udp%3A%2F%2Fexodus.desync.com%3A6969"],"infoHash":"36f58110268c2c3534469974a159c08f35256965","infoHashBuffer":{"type":"Buffer","data":[54,245,129,16,38,140,44,53,52,70,153,116,161,89,192,143,53,37,105,101]},"announce":[],"urlList":[]}}